<svg width="545" height="272" viewBox="0 0 545 272" fill="none" xmlns="http://www.w3.org/2000/svg">
<path d="M29.033 272C24.9463 272 20.9872 271.235 17.1559 269.705C13.3245 268.429 10.004 266.262 7.1944 263.201C4.38475 260.141 2.34137 256.315 1.06426 251.724C-0.212852 246.879 -0.340563 241.14 0.681127 234.509L28.2668 37.4909C29.2884 30.8598 31.0764 25.249 33.6306 20.6582C36.4403 15.8125 39.633 11.8594 43.209 8.79888C47.0403 5.73841 50.9993 3.57056 55.0861 2.29535C59.4283 0.765117 63.7705 0 68.1127 0H74.6259C78.7127 0 82.6717 0.765117 86.5031 2.29535C90.3344 3.57056 93.6549 5.73841 96.4645 8.79888C99.2742 11.8594 101.318 15.8125 102.595 20.6582C104.127 25.249 104.383 30.8598 103.361 37.4909L93.0163 110.177H66.9632L76.9247 40.9339C77.9464 34.0478 77.5633 29.2021 75.7753 26.3966C74.2428 23.3362 72.0717 21.8059 69.2621 21.8059H66.9632C64.1536 21.8059 61.4717 23.2086 58.9174 26.0141C56.6186 28.8195 54.9584 33.9203 53.9367 41.3165L26.7342 230.684C25.7125 237.825 25.9679 242.925 27.5005 245.986C29.2884 248.791 31.5872 250.194 34.3969 250.194H36.6957C39.5053 250.194 42.0596 248.791 44.3584 245.986C46.9126 242.925 48.7005 237.825 49.7222 230.684L59.6837 161.44H85.7368L75.3922 234.509C74.3705 241.14 72.4548 246.879 69.6452 251.724C67.091 256.315 63.8982 260.141 60.0668 263.201C56.4909 266.262 52.5319 268.429 48.1897 269.705C43.8475 271.235 39.633 272 35.5463 272H29.033Z" fill="#F7F7F7"/>
<path d="M133.087 269.705L136.918 197.401H113.547L97.0722 269.705H74.8504L137.301 2.29535H170.251L157.99 269.705H133.087ZM118.145 177.89H137.684L143.431 74.2166H142.282L118.145 177.89Z" fill="#F7F7F7"/>
<path d="M264.041 110.177C262.764 118.338 260.592 124.459 257.527 128.54C254.462 132.366 250.886 134.916 246.8 136.191C250.631 137.211 253.568 139.762 255.612 143.842C257.655 147.668 258.038 153.662 256.761 161.823L247.949 224.18C245.65 240.248 244.501 251.597 244.501 258.228C244.501 264.604 244.756 268.429 245.267 269.705H219.597C218.32 266.644 217.809 261.543 218.065 254.402C218.575 247.261 219.853 237.187 221.896 224.18L230.325 164.118C232.113 151.876 229.942 145.755 223.812 145.755H210.019L192.395 269.705H166.725L204.655 2.29535H245.267C254.718 2.29535 262.253 5.48336 267.872 11.8594C273.747 17.9803 275.918 27.1617 274.385 39.4036L264.041 110.177ZM226.877 126.627C233.007 126.627 236.838 120.634 238.371 108.647L247.566 43.2293C248.843 36.5982 248.588 31.7525 246.8 28.692C245.012 25.6315 242.585 24.1013 239.52 24.1013H227.26L212.701 126.627H226.877Z" fill="#F7F7F7"/>
<path d="M348.528 24.1013H322.858L287.992 269.705H261.939L297.188 24.1013H271.518L274.583 2.29535H351.976L348.528 24.1013Z" fill="#F7F7F7"/>
<path d="M387.095 2.29535L349.165 269.705H323.495L361.425 2.29535H387.095Z" fill="#F7F7F7"/>
<path d="M424.813 24.1013L410.254 126.245H437.073L434.008 145.755H407.572L393.013 247.899H429.028L425.962 269.705H364.278L402.208 2.29535H461.977L458.912 24.1013H424.813Z" fill="#F7F7F7"/>
<path d="M534.18 110.177C532.903 118.338 530.732 124.459 527.667 128.54C524.601 132.366 521.026 134.916 516.939 136.191C520.77 137.211 523.707 139.762 525.751 143.842C527.794 147.668 528.177 153.662 526.9 161.823L518.088 224.18C515.789 240.248 514.64 251.597 514.64 258.228C514.64 264.604 514.895 268.429 515.406 269.705H489.736C488.459 266.644 487.948 261.543 488.204 254.402C488.715 247.261 489.992 237.187 492.035 224.18L500.464 164.118C502.252 151.876 500.081 145.755 493.951 145.755H480.158L462.534 269.705H436.864L474.794 2.29535H515.406C524.857 2.29535 532.392 5.48336 538.011 11.8594C543.886 17.9803 546.057 27.1617 544.524 39.4036L534.18 110.177ZM497.016 126.627C503.146 126.627 506.977 120.634 508.51 108.647L517.705 43.2293C518.982 36.5982 518.727 31.7525 516.939 28.692C515.151 25.6315 512.724 24.1013 509.659 24.1013H497.399L482.84 126.627H497.016Z" fill="#F7F7F7"/>
</svg>
